<svg width="787" height="718" viewBox="0 0 787 718" fill="none" xmlns="http://www.w3.org/2000/svg">
<path fill-rule="evenodd" clip-rule="evenodd" d="M20.415 222.378C19.7051 224.504 20.4972 226.843 22.3531 228.101L51.9929 248.183C54.6781 250.002 58.358 248.822 59.4856 245.781L89.3047 165.356C89.922 163.691 91.376 162.479 93.1246 162.171L129.644 155.731C130.326 155.611 131.026 155.634 131.699 155.798L177.586 167.008C178.485 167.228 179.305 167.692 179.955 168.35L245.783 234.922C248.618 237.79 247.067 242.662 243.096 243.362L83.8638 271.439C81.4408 271.866 79.6887 273.992 79.7329 276.452L80.1376 299.02C80.1607 300.309 80.681 301.54 81.59 302.454L276.862 498.976C278.137 500.26 278.62 502.132 278.123 503.872L257.87 574.853C257.319 576.784 257.977 578.857 259.54 580.118L287.638 602.772C288.823 603.728 290.379 604.091 291.866 603.76L729.985 505.946C731.862 505.526 733.333 504.068 733.767 502.194L741.955 466.836C742.78 463.277 739.634 460.065 736.059 460.814L453.791 519.97C448.222 521.137 445.34 513.579 450.272 510.742L623.43 411.133C624.671 410.419 625.546 409.208 625.834 407.805L670.024 192.766C670.453 190.68 669.513 188.55 667.682 187.462L651.881 178.068C650.874 177.469 649.689 177.243 648.533 177.429L300.394 233.3C298.765 233.561 297.112 233.002 295.976 231.806L174.939 104.324C173.784 103.108 172.096 102.551 170.445 102.843L56.3671 122.958C54.5606 123.276 53.0735 124.558 52.4926 126.298L20.415 222.378ZM626.2 229.762C626.789 226.368 623.849 223.409 620.45 223.976L152.971 301.99C148.996 302.653 147.399 307.505 150.203 310.4L324.811 490.692C325.984 491.903 326.467 493.624 326.097 495.269L315.241 543.464C314.456 546.948 317.47 550.107 320.987 549.487L347.566 544.8C350.286 544.321 352.102 541.727 351.622 539.008L349.457 526.729C349.089 524.644 350.074 522.554 351.916 521.51L597.897 382.15C599.199 381.412 600.103 380.13 600.359 378.655L626.2 229.762Z" fill="#7D70BA"/>
<circle cx="332.954" cy="651.966" r="25" transform="rotate(-10 332.954 651.966)" fill="#7D70BA"/>
<circle cx="632.221" cy="587.012" r="25" transform="rotate(-10 632.221 587.012)" fill="#7D70BA"/>
<path fill-rule="evenodd" clip-rule="evenodd" d="M36.0576 207.435C35.3477 209.561 36.1398 211.9 37.9957 213.157L67.6355 233.239C70.3207 235.058 74.0006 233.879 75.1282 230.838L104.947 150.413C105.565 148.748 107.019 147.535 108.767 147.227L145.287 140.788C145.969 140.668 146.669 140.69 147.341 140.855L193.229 152.065C194.127 152.284 194.947 152.749 195.597 153.406L261.425 219.979C264.261 222.846 262.71 227.718 258.738 228.418L99.5064 256.495C97.0834 256.923 95.3313 259.049 95.3754 261.509L95.7801 284.077C95.8033 285.366 96.3236 286.596 97.2325 287.511L292.504 484.033C293.78 485.316 294.262 487.189 293.766 488.929L273.513 559.91C272.962 561.841 273.62 563.914 275.183 565.174L303.28 587.829C304.466 588.784 306.022 589.148 307.508 588.816L745.628 491.002C747.505 490.583 748.975 489.124 749.409 487.25L757.598 451.893C758.422 448.334 755.276 445.122 751.701 445.871L469.433 505.026C463.864 506.194 460.982 498.636 465.914 495.799L639.072 396.19C640.313 395.476 641.189 394.264 641.477 392.862L685.667 177.823C686.096 175.736 685.155 173.607 683.324 172.519L667.523 163.124C666.517 162.526 665.332 162.3 664.176 162.485L316.037 218.356C314.408 218.618 312.755 218.059 311.619 216.862L190.581 89.3807C189.427 88.1644 187.739 87.6081 186.087 87.8994L72.0096 108.014C70.2032 108.333 68.7161 109.615 68.1352 111.355L36.0576 207.435ZM641.842 214.819C642.432 211.424 639.491 208.465 636.093 209.032L168.614 287.046C164.639 287.71 163.042 292.562 165.845 295.457L340.453 475.748C341.626 476.96 342.11 478.681 341.739 480.325L330.883 528.521C330.099 532.004 333.113 535.164 336.629 534.544L363.209 529.857C365.928 529.377 367.744 526.784 367.265 524.065L365.1 511.785C364.732 509.701 365.717 507.61 367.559 506.567L613.54 367.207C614.842 366.469 615.745 365.186 616.001 363.712L641.842 214.819Z" fill="#46C93A"/>
<circle cx="348.596" cy="637.023" r="25" transform="rotate(-10 348.596 637.023)" fill="#46C93A"/>
<circle cx="647.863" cy="572.069" r="25" transform="rotate(-10 647.863 572.069)" fill="#46C93A"/>
</svg>
